<svg width="310" height="50" viewBox="0 0 310 50" fill="none" xmlns="http://www.w3.org/2000/svg">
<rect width="310" height="50" fill="black"/>
<circle cx="21.5" cy="24.5" r="13.5" fill="white"/>
<path d="M29.5345 16.4656V32.5345H13.4655V16.4656H29.5345ZM30.125 15.875H12.875V33.125H30.125V15.875Z" fill="black"/>
<path d="M14.0851 25.8687H14.3752C14.4138 25.8687 14.44 25.8611 14.4539 25.8459C14.4678 25.8307 14.4747 25.8052 14.4746 25.7693V23.2827C14.4746 23.244 14.4677 23.2177 14.4539 23.2039C14.4401 23.1901 14.4139 23.1832 14.3752 23.1832H14.0851V23.0506H15.6267C15.8502 23.049 16.0693 23.1131 16.2566 23.235C16.4472 23.358 16.5985 23.5292 16.7104 23.7489C16.8223 23.9685 16.8782 24.2192 16.8782 24.501C16.8782 24.7829 16.8223 25.0384 16.7104 25.2677C16.5985 25.497 16.4466 25.6766 16.2545 25.8065C16.0701 25.934 15.851 26.0019 15.6267 26.0012H14.0851V25.8687ZM15.5563 25.8687C15.733 25.8687 15.8801 25.8072 15.9976 25.6843C16.1151 25.5614 16.1738 25.3824 16.1737 25.1475V23.9043C16.1737 23.6695 16.115 23.4906 15.9976 23.3676C15.8802 23.2447 15.7331 23.1832 15.5563 23.1832H15.1874C15.1515 23.1832 15.126 23.1901 15.1108 23.2039C15.0956 23.2177 15.088 23.244 15.088 23.2827V25.7692C15.088 25.805 15.0956 25.8306 15.1108 25.8458C15.126 25.8611 15.1515 25.8687 15.1874 25.8686L15.5563 25.8687Z" fill="black"/>
<path d="M17.4874 25.9164C17.3576 25.8266 17.254 25.703 17.1766 25.5455C17.0992 25.388 17.0605 25.2125 17.0606 25.0191C17.0606 24.8257 17.0993 24.6502 17.1766 24.4928C17.254 24.3353 17.3576 24.2117 17.4874 24.1219C17.6173 24.0321 17.7568 23.9872 17.906 23.9872C18.0552 23.9872 18.1947 24.0321 18.3245 24.1219C18.4545 24.2117 18.5581 24.3353 18.6354 24.4928C18.7126 24.6502 18.7514 24.8257 18.7515 25.0191C18.7515 25.2125 18.7128 25.3879 18.6354 25.5455C18.5579 25.703 18.4543 25.8267 18.3245 25.9164C18.1948 26.0062 18.0552 26.0511 17.906 26.0511C17.7567 26.0511 17.6172 26.0062 17.4874 25.9164ZM18.1526 25.732C18.1981 25.5855 18.2209 25.3478 18.2209 25.0191C18.2209 24.6903 18.1981 24.4527 18.1526 24.3063C18.107 24.1599 18.0248 24.0867 17.906 24.0866C17.7872 24.0866 17.705 24.1598 17.6594 24.3063C17.6138 24.4528 17.591 24.6904 17.591 25.0191C17.591 25.3478 17.6138 25.5854 17.6594 25.732C17.705 25.8784 17.7872 25.9516 17.906 25.9516C18.0248 25.9516 18.107 25.8784 18.1526 25.732V25.732Z" fill="black"/>
<path d="M19.3502 25.9122C19.2162 25.8198 19.1118 25.6947 19.0372 25.5372C18.9626 25.3796 18.9253 25.207 18.9253 25.0192C18.9253 24.8313 18.9619 24.6586 19.0352 24.5012C19.1084 24.3437 19.212 24.2187 19.346 24.1261C19.4792 24.0338 19.6379 23.9852 19.8 23.9872C19.9326 23.9872 20.0438 24.0148 20.1336 24.0701C20.2187 24.1206 20.2883 24.1938 20.3345 24.2814C20.3776 24.3632 20.4004 24.4542 20.4008 24.5466C20.4025 24.6411 20.3701 24.7331 20.3096 24.8056C20.2488 24.8789 20.1756 24.9155 20.0899 24.9155C20.0263 24.9155 19.9738 24.8968 19.9325 24.8595C19.8911 24.8222 19.8704 24.7718 19.8703 24.7083C19.8703 24.6337 19.9145 24.5605 20.0029 24.4886C20.0692 24.4334 20.1024 24.3767 20.1024 24.3187C20.1018 24.2593 20.0789 24.2024 20.0381 24.1592C19.9953 24.1108 19.9269 24.0866 19.833 24.0866C19.7031 24.0866 19.6078 24.1688 19.5471 24.3332C19.4864 24.4976 19.456 24.7262 19.4559 25.0191C19.4559 25.1656 19.4587 25.2795 19.4642 25.361C19.4691 25.4387 19.4816 25.5157 19.5015 25.591C19.5263 25.6931 19.574 25.7746 19.6445 25.8355C19.7125 25.8953 19.8004 25.9278 19.891 25.9266C20.0263 25.9266 20.1355 25.8672 20.2184 25.7484C20.3014 25.6296 20.3511 25.4901 20.3676 25.3299H20.4754C20.4588 25.5205 20.3966 25.6884 20.2889 25.8334C20.1811 25.9784 20.0209 26.051 19.8081 26.051C19.6369 26.051 19.4842 26.0048 19.3502 25.9122Z" fill="black"/>
<path d="M21.0659 25.9122C20.9318 25.8198 20.8275 25.6947 20.753 25.5372C20.6785 25.3797 20.6412 25.207 20.6411 25.0192C20.6411 24.8258 20.6784 24.6504 20.753 24.4929C20.8276 24.3354 20.9291 24.2117 21.0576 24.1219C21.1802 24.034 21.3274 23.9869 21.4782 23.9872C21.6468 23.9872 21.7918 24.0473 21.9134 24.1675C22.0349 24.2876 22.1151 24.4458 22.1537 24.642C22.1731 24.7304 22.1828 24.8686 22.1828 25.0564H21.1716C21.1716 25.1888 21.1743 25.2931 21.1799 25.3693C21.1852 25.4442 21.1977 25.5184 21.2172 25.591C21.242 25.6931 21.2897 25.7746 21.3601 25.8355C21.4282 25.8953 21.5161 25.9278 21.6067 25.9266C21.7422 25.9266 21.8513 25.8672 21.9341 25.7484C22.0169 25.6296 22.0666 25.4901 22.0833 25.3299H22.191C22.1745 25.5205 22.1123 25.6884 22.0046 25.8334C21.8968 25.9784 21.7366 26.051 21.5238 26.051C21.3525 26.051 21.1999 26.0048 21.0659 25.9122ZM21.702 24.9403C21.702 24.6502 21.6834 24.4354 21.6461 24.2959C21.6088 24.1564 21.539 24.0866 21.4368 24.0866C21.3346 24.0866 21.2648 24.1564 21.2275 24.2959C21.1902 24.4354 21.1716 24.6502 21.1716 24.9403H21.702Z" fill="black"/>
<path d="M14.6425 29.8119C14.467 29.671 14.3323 29.4824 14.2384 29.2462C14.1446 29.01 14.0976 28.7523 14.0975 28.4732C14.0975 28.1969 14.15 27.94 14.255 27.7024C14.36 27.4648 14.5064 27.2755 14.6943 27.1346C14.8776 26.9952 15.1022 26.9208 15.3325 26.9233C15.4512 26.9233 15.5541 26.9406 15.6412 26.9751C15.7394 27.0157 15.8332 27.0664 15.9209 27.1264C15.9844 27.1678 16.0314 27.1885 16.0618 27.1885C16.0978 27.1885 16.1281 27.1623 16.153 27.1098L16.2235 26.9564H16.3602V28.15H16.2318C16.1351 27.7992 16.0114 27.5291 15.8609 27.3398C15.7103 27.1505 15.5342 27.0558 15.3325 27.0559C15.1639 27.0559 15.0334 27.1174 14.9409 27.2403C14.8483 27.3633 14.802 27.567 14.802 27.8516V29.0948C14.802 29.6254 14.954 29.8907 15.2579 29.8906C15.4015 29.8906 15.5189 29.8298 15.6101 29.7083C15.7014 29.5867 15.747 29.4444 15.7469 29.2813V28.7136C15.7469 28.6749 15.74 28.6486 15.7262 28.6348C15.7124 28.621 15.6861 28.6141 15.6474 28.6141H15.2827V28.4815H16.6586V28.6141H16.4597C16.4237 28.6141 16.3982 28.621 16.383 28.6348C16.3678 28.6486 16.3602 28.6749 16.3602 28.7136V30.0025H16.2276L16.1281 29.6254C16.1205 29.599 16.1079 29.5744 16.0909 29.5529C16.0837 29.5431 16.0743 29.5353 16.0635 29.5299C16.0527 29.5245 16.0408 29.5217 16.0287 29.5218C15.979 29.5218 15.9361 29.5508 15.9002 29.6088C15.8268 29.7183 15.7358 29.815 15.6309 29.8947C15.5248 29.9788 15.3932 30.0241 15.2579 30.0232C15.023 30.0232 14.8179 29.9528 14.6425 29.8119Z" fill="black"/>
<path d="M17.1911 29.8595C17.0571 29.767 16.9528 29.642 16.8782 29.4845C16.8037 29.3269 16.7664 29.1543 16.7664 28.9665C16.7664 28.7731 16.8037 28.5976 16.8782 28.4402C16.9528 28.2827 17.0544 28.159 17.1828 28.0693C17.3055 27.9814 17.4526 27.9342 17.6035 27.9346C17.7719 27.9346 17.917 27.9947 18.0386 28.1148C18.1602 28.235 18.2404 28.3932 18.279 28.5893C18.2982 28.6778 18.3079 28.816 18.308 29.0038H17.2968C17.2968 29.1362 17.2996 29.2405 17.3051 29.3166C17.3104 29.3916 17.3229 29.4658 17.3424 29.5384C17.3673 29.6405 17.4149 29.722 17.4854 29.7829C17.5534 29.8427 17.6413 29.8752 17.7319 29.874C17.8672 29.874 17.9764 29.8146 18.0593 29.6958C18.1423 29.577 18.192 29.4375 18.2085 29.2773H18.3163C18.2997 29.4679 18.2375 29.6357 18.1298 29.7808C18.022 29.9258 17.8618 29.9984 17.6491 29.9984C17.4778 29.9984 17.3251 29.9521 17.1911 29.8595ZM17.8273 28.8876C17.8273 28.5975 17.8086 28.3827 17.7713 28.2432C17.734 28.1037 17.6643 28.0339 17.562 28.0339C17.4597 28.0339 17.39 28.1037 17.3528 28.2432C17.3155 28.3827 17.2969 28.5975 17.2968 28.8876H17.8273Z" fill="black"/>
<path d="M18.4074 29.8492H18.6395C18.6644 29.8492 18.6816 29.8443 18.6913 29.8346C18.701 29.825 18.7058 29.8077 18.7058 29.7828V27.1636C18.7058 27.1388 18.7009 27.1216 18.6913 27.1118C18.6817 27.1021 18.6644 27.0973 18.6395 27.0973H18.4074V26.9979H19.1865V29.7828C19.1865 29.8077 19.1913 29.8249 19.201 29.8346C19.2108 29.8444 19.228 29.8492 19.2528 29.8492H19.4849V29.9486H18.4074V29.8492Z" fill="black"/>
<path d="M19.976 29.8595C19.8419 29.767 19.7376 29.642 19.6631 29.4845C19.5886 29.3269 19.5513 29.1543 19.5512 28.9665C19.5512 28.7731 19.5885 28.5976 19.6631 28.4402C19.7377 28.2827 19.8392 28.159 19.9677 28.0693C20.0903 27.9814 20.2375 27.9342 20.3883 27.9346C20.5568 27.9346 20.7018 27.9947 20.8235 28.1148C20.9451 28.235 21.0252 28.3932 21.0638 28.5893C21.0831 28.6778 21.0928 28.816 21.0928 29.0038H20.0817C20.0817 29.1362 20.0844 29.2405 20.0899 29.3166C20.0953 29.3916 20.1078 29.4658 20.1272 29.5384C20.1521 29.6405 20.1998 29.722 20.2702 29.7829C20.3383 29.8427 20.4261 29.8752 20.5168 29.874C20.6521 29.874 20.7612 29.8146 20.8442 29.6958C20.9271 29.577 20.9769 29.4375 20.9934 29.2773H21.1011C21.0845 29.4679 21.0224 29.6357 20.9146 29.7808C20.8069 29.9258 20.6466 29.9984 20.4339 29.9984C20.2626 29.9984 20.1099 29.9521 19.976 29.8595ZM20.6121 28.8876C20.6121 28.5975 20.5935 28.3827 20.5562 28.2432C20.5189 28.1037 20.4491 28.0339 20.3469 28.0339C20.2446 28.0339 20.1748 28.1037 20.1376 28.2432C20.1004 28.3827 20.0817 28.5975 20.0817 28.8876H20.6121Z" fill="black"/>
<path d="M21.2502 29.8492H21.4077C21.4326 29.8492 21.4498 29.8443 21.4595 29.8347C21.4691 29.8249 21.474 29.8077 21.474 29.7829V28.15C21.474 28.1251 21.4691 28.1079 21.4595 28.0982C21.4499 28.0884 21.4326 28.0837 21.4077 28.0837H21.2502V27.9842H21.9547V29.7829C21.9547 29.8077 21.9596 29.8249 21.9692 29.8347C21.9789 29.8444 21.9962 29.8492 22.021 29.8492H22.1786V29.9486H21.2503L21.2502 29.8492ZM21.4802 27.4724C21.4513 27.4442 21.4284 27.4103 21.4131 27.3728C21.3978 27.3354 21.3903 27.2953 21.3911 27.2548C21.3911 27.1664 21.4208 27.0932 21.4802 27.0352C21.5088 27.0068 21.5428 26.9845 21.5801 26.9695C21.6175 26.9546 21.6575 26.9473 21.6978 26.9482C21.7861 26.9482 21.8593 26.9772 21.9174 27.0352C21.9755 27.0932 22.0045 27.1664 22.0044 27.2548C22.0053 27.2951 21.998 27.3351 21.9831 27.3725C21.9681 27.4099 21.9458 27.4438 21.9174 27.4724C21.8594 27.5319 21.7862 27.5616 21.6978 27.5615C21.6574 27.5623 21.6172 27.5548 21.5798 27.5395C21.5423 27.5242 21.5085 27.5013 21.4802 27.4724V27.4724Z" fill="black"/>
<path d="M22.4376 29.8865C22.3312 29.8119 22.2781 29.6862 22.2781 29.5093C22.2781 29.3298 22.3437 29.1882 22.4749 29.0846C22.6061 28.981 22.7726 28.8946 22.9743 28.8256L23.2809 28.7178V28.436C23.2809 28.2951 23.2519 28.1929 23.1939 28.1293C23.1359 28.0658 23.0613 28.034 22.9701 28.034C22.8927 28.034 22.8257 28.0513 22.7691 28.0858C22.7126 28.1204 22.6843 28.168 22.6842 28.2288C22.6851 28.2496 22.69 28.27 22.6987 28.2889C22.7095 28.3137 22.7275 28.3347 22.7505 28.349C22.7919 28.3738 22.8216 28.4001 22.8396 28.4277C22.8576 28.4554 22.8665 28.4913 22.8665 28.5355C22.8665 28.6018 22.8424 28.6536 22.794 28.6909C22.7487 28.7271 22.6925 28.7468 22.6345 28.7468C22.5658 28.748 22.4995 28.722 22.45 28.6743C22.3989 28.626 22.3733 28.5562 22.3734 28.465C22.3721 28.3636 22.4058 28.2648 22.4687 28.1853C22.533 28.1033 22.6171 28.0391 22.7132 27.9988C22.8086 27.9569 22.9115 27.935 23.0157 27.9346C23.2146 27.9346 23.3887 27.9878 23.5379 28.0941C23.6871 28.2005 23.7617 28.3697 23.7617 28.6018V29.6503C23.7617 29.7498 23.7893 29.7995 23.8445 29.7995C23.8943 29.7995 23.9316 29.7581 23.9564 29.6752C23.9827 29.5822 23.9952 29.4859 23.9937 29.3893H24.1098C24.1098 29.5909 24.0794 29.7387 24.0186 29.8327C23.9872 29.8834 23.9428 29.9249 23.8901 29.9529C23.8315 29.9841 23.7659 29.9997 23.6995 29.9985C23.5862 29.9985 23.5005 29.9812 23.4426 29.9467C23.3846 29.9121 23.3363 29.8548 23.2975 29.7747H23.2892C23.1787 29.9239 23.024 29.9985 22.8251 29.9985C22.6731 29.9984 22.5439 29.9611 22.4376 29.8865ZM23.2809 29.6502V28.8296L23.0489 28.9125C22.9577 28.9456 22.8907 29.0085 22.8479 29.101C22.8051 29.1936 22.7836 29.3173 22.7836 29.472C22.7836 29.6074 22.8085 29.7013 22.8582 29.7538C22.908 29.8064 22.9646 29.8327 23.0282 29.8326C23.1358 29.8326 23.2201 29.7718 23.2808 29.6502H23.2809Z" fill="black"/>
<path d="M14.6227 31.0697H14.8248V31.1008C14.8248 31.2572 14.8107 31.3627 14.7825 31.4173C14.7549 31.4735 14.7029 31.5016 14.6264 31.5016C14.5477 31.5016 14.4916 31.4705 14.4581 31.4083C14.4246 31.3462 14.408 31.2413 14.4083 31.0939C14.4083 30.9256 14.4265 30.8135 14.4628 30.7576C14.4974 30.7053 14.5499 30.6792 14.6205 30.6792C14.6747 30.6792 14.717 30.6918 14.7472 30.7171C14.7775 30.7424 14.8014 30.7844 14.8189 30.8434L14.7153 30.8854C14.7115 30.8673 14.7063 30.8495 14.6998 30.8322C14.6954 30.8201 14.689 30.8088 14.681 30.7987C14.6675 30.7823 14.6472 30.7743 14.6201 30.7743C14.583 30.7743 14.5577 30.7964 14.5442 30.8408C14.5307 30.8872 14.5238 30.9705 14.5234 31.0908C14.5234 31.2124 14.5303 31.2947 14.5442 31.3377C14.558 31.3806 14.5841 31.4021 14.6227 31.4021C14.6383 31.4031 14.6538 31.3993 14.6672 31.391C14.6805 31.3828 14.6909 31.3707 14.6971 31.3563C14.7117 31.3238 14.719 31.2715 14.7189 31.1993V31.1614H14.6222L14.6227 31.0697Z" fill="black"/>
<path d="M15.1543 30.6892H15.4498V30.7807H15.2654V31.0348H15.429V31.1263H15.2656V31.4002H15.4501V31.4917H15.1543V30.6892Z" fill="black"/>
<path d="M15.7712 30.6892H15.8824V31.4002H16.0642V31.4917H15.7712V30.6892Z" fill="black"/>
<path d="M16.3528 30.6892H16.6483V30.7807H16.4639V31.0348H16.6275V31.1263H16.4639V31.4002H16.6483V31.4917H16.3528V30.6892Z" fill="black"/>
<path d="M16.9695 30.6892H17.0807V31.4917H16.9695V30.6892Z" fill="black"/>
<path d="M17.5445 30.6892H17.6311L17.8082 31.4917H17.698L17.6669 31.3353H17.5034L17.4723 31.4917H17.3649L17.5445 30.6892ZM17.6511 31.2516L17.6266 31.1237C17.6102 31.0368 17.5968 30.944 17.5865 30.8451C17.5815 30.8935 17.5751 30.9422 17.5672 30.9914C17.5593 31.0406 17.5501 31.093 17.5394 31.1487L17.5187 31.2516H17.6511Z" fill="black"/>
<path d="M18.6561 30.6892H18.7427L18.9196 31.4917H18.8091L18.778 31.3353H18.6146L18.5836 31.4917H18.476L18.6561 30.6892ZM18.7625 31.2516L18.7379 31.1237C18.7214 31.0368 18.7081 30.944 18.6978 30.8451C18.6927 30.8935 18.6863 30.9422 18.6786 30.9914C18.6708 31.0406 18.6615 31.093 18.6507 31.1487L18.63 31.2516H18.7625Z" fill="black"/>
<path d="M19.2035 30.6892H19.3502C19.4107 30.6892 19.4559 30.7033 19.4849 30.7314C19.5223 30.7677 19.541 30.8233 19.5411 30.8982C19.5411 30.9556 19.5312 31.0018 19.5114 31.0367C19.5028 31.053 19.4908 31.0672 19.4762 31.0783C19.4616 31.0895 19.4447 31.0974 19.4267 31.1013L19.5785 31.4917H19.4659L19.3147 31.0987V31.4917H19.2035V30.6892ZM19.3147 31.0448C19.3578 31.0448 19.3882 31.0351 19.4061 31.0156C19.4239 30.9962 19.4328 30.9635 19.4328 30.9173C19.4331 30.8959 19.4312 30.8745 19.4272 30.8534C19.4244 30.838 19.4184 30.8233 19.4096 30.8103C19.4018 30.7994 19.391 30.7909 19.3785 30.7859C19.3641 30.7804 19.3488 30.7777 19.3333 30.7781H19.3146L19.3147 31.0448Z" fill="black"/>
<path d="M19.8288 30.6892H20.1908V30.7836H20.0664V31.4915H19.9571V30.7836H19.8288V30.6892Z" fill="black"/>
<path d="M20.4712 30.6892H20.7669V30.7807H20.5825V31.0348H20.7461V31.1263H20.5825V31.4002H20.7669V31.4917H20.4712V30.6892Z" fill="black"/>
<path d="M21.3633 30.7059V30.8113C21.3295 30.7879 21.299 30.7761 21.272 30.776C21.2585 30.7756 21.2452 30.7781 21.2328 30.7833C21.2205 30.7885 21.2093 30.7963 21.2003 30.8062C21.1908 30.8164 21.1835 30.8284 21.1787 30.8415C21.1739 30.8547 21.1718 30.8686 21.1725 30.8825C21.1717 30.9081 21.1786 30.9334 21.1923 30.955C21.2023 30.9697 21.2134 30.9836 21.2257 30.9965C21.2412 31.0135 21.2613 31.0339 21.2858 31.0578C21.3311 31.1024 21.3619 31.1411 21.3784 31.1737C21.3958 31.2098 21.4042 31.2496 21.4029 31.2896C21.4029 31.3517 21.3849 31.4029 21.3489 31.4429C21.3315 31.4621 21.31 31.4773 21.2861 31.4875C21.2622 31.4976 21.2364 31.5025 21.2104 31.5017C21.1669 31.5029 21.1242 31.4895 21.0891 31.4637V31.3565C21.1287 31.3846 21.1647 31.3987 21.1971 31.3987C21.2104 31.3994 21.2237 31.3971 21.236 31.392C21.2483 31.3869 21.2593 31.3791 21.2682 31.3692C21.2863 31.3467 21.2954 31.3183 21.2938 31.2895C21.2943 31.262 21.2874 31.235 21.274 31.211C21.2656 31.1976 21.2561 31.1848 21.2458 31.1728C21.2336 31.1584 21.2185 31.1425 21.2003 31.1247C21.1721 31.0977 21.1487 31.0738 21.1302 31.0531C21.1146 31.0363 21.1007 31.018 21.0888 30.9985C21.0705 30.9628 21.0616 30.9231 21.0631 30.883C21.0631 30.8204 21.0798 30.7707 21.1133 30.734C21.1468 30.6972 21.1923 30.6787 21.2497 30.6783C21.2892 30.6782 21.3282 30.6876 21.3633 30.7059V30.7059Z" fill="black"/>
<path d="M21.8454 30.6892H21.932L22.109 31.4917H21.9988L21.9678 31.3353H21.8043L21.7732 31.4917H21.6658L21.8454 30.6892ZM21.9518 31.2516L21.9271 31.1237C21.9108 31.0368 21.8974 30.944 21.8871 30.8451C21.8821 30.8935 21.8757 30.9422 21.8679 30.9914C21.8601 31.0406 21.8508 31.093 21.84 31.1487L21.8193 31.2516H21.9518Z" fill="black"/>
<path d="M22.3932 30.6892H22.4968L22.6074 31.0093C22.6408 31.1045 22.6692 31.2013 22.6924 31.2994C22.6835 31.2373 22.6769 31.1811 22.6726 31.131C22.6683 31.0808 22.6662 31.0335 22.6662 30.9891V30.6897H22.7779V31.4922H22.6739L22.5496 31.131C22.5382 31.0974 22.5274 31.0629 22.5173 31.0274C22.5071 30.9919 22.4978 30.9547 22.4894 30.9158C22.4887 30.911 22.4875 30.9054 22.486 30.8982C22.4844 30.8909 22.4825 30.8832 22.4803 30.8742C22.4814 30.8832 22.4823 30.8909 22.483 30.8973C22.4837 30.9038 22.4842 30.9092 22.4846 30.9137L22.4904 30.9953L22.4963 31.0946C22.4963 31.1002 22.497 31.1069 22.4972 31.1153C22.4974 31.1237 22.4972 31.1323 22.4972 31.1424L22.503 31.4921H22.3932V30.6892Z" fill="black"/>
<path d="M23.2575 30.6892H23.3441L23.5211 31.4917H23.4115L23.3804 31.3353H23.2164L23.1853 31.4917H23.0779L23.2575 30.6892ZM23.3639 31.2516L23.3394 31.1237C23.3229 31.0368 23.3096 30.944 23.2993 30.8451C23.2942 30.8935 23.2877 30.9422 23.28 30.9914C23.2723 31.0406 23.263 31.093 23.2521 31.1487L23.2314 31.2516H23.3639Z" fill="black"/>
<path d="M23.8052 30.6892H23.9164V31.4002H24.0982V31.4917H23.8052V30.6892Z" fill="black"/>
<path d="M43.1364 23.1065C42.6392 23.1065 42.1889 22.9787 41.7855 22.723C41.3849 22.4645 41.0668 22.0852 40.831 21.5852C40.598 21.0824 40.4815 20.4659 40.4815 19.7358C40.4815 18.9858 40.6023 18.3622 40.8438 17.8651C41.0852 17.3651 41.4063 16.9915 41.8068 16.7443C42.2102 16.4943 42.652 16.3693 43.1321 16.3693C43.4986 16.3693 43.804 16.4318 44.0483 16.5568C44.2955 16.679 44.4943 16.8324 44.6449 17.017C44.7983 17.1989 44.9148 17.3778 44.9943 17.554H45.0497V14.2727H46.8608V23H45.071V21.9517H44.9943C44.9091 22.1335 44.7884 22.3139 44.6321 22.4929C44.4787 22.669 44.2784 22.8153 44.0312 22.9318C43.7869 23.0483 43.4886 23.1065 43.1364 23.1065ZM43.7116 21.6619C44.0043 21.6619 44.2514 21.5824 44.4531 21.4233C44.6577 21.2614 44.8139 21.0355 44.9219 20.7457C45.0327 20.456 45.0881 20.1165 45.0881 19.7273C45.0881 19.3381 45.0341 19 44.9261 18.7131C44.8182 18.4261 44.6619 18.2045 44.4574 18.0483C44.2528 17.892 44.0043 17.8139 43.7116 17.8139C43.4134 17.8139 43.1619 17.8949 42.9574 18.0568C42.7528 18.2187 42.598 18.4432 42.4929 18.7301C42.3878 19.017 42.3352 19.3494 42.3352 19.7273C42.3352 20.108 42.3878 20.4446 42.4929 20.7372C42.6009 21.027 42.7557 21.2543 42.9574 21.419C43.1619 21.581 43.4134 21.6619 43.7116 21.6619ZM51.3107 23.1278C50.6488 23.1278 50.0763 22.9872 49.5934 22.706C49.1133 22.4219 48.7425 22.027 48.4812 21.5213C48.2198 21.0128 48.0891 20.4233 48.0891 19.7528C48.0891 19.0767 48.2198 18.4858 48.4812 17.9801C48.7425 17.4716 49.1133 17.0767 49.5934 16.7955C50.0763 16.5114 50.6488 16.3693 51.3107 16.3693C51.9727 16.3693 52.5437 16.5114 53.0238 16.7955C53.5067 17.0767 53.8789 17.4716 54.1403 17.9801C54.4016 18.4858 54.5323 19.0767 54.5323 19.7528C54.5323 20.4233 54.4016 21.0128 54.1403 21.5213C53.8789 22.027 53.5067 22.4219 53.0238 22.706C52.5437 22.9872 51.9727 23.1278 51.3107 23.1278ZM51.3192 21.7216C51.6204 21.7216 51.8718 21.6364 52.0735 21.4659C52.2752 21.2926 52.4272 21.0568 52.5295 20.7585C52.6346 20.4602 52.6871 20.1207 52.6871 19.7401C52.6871 19.3594 52.6346 19.0199 52.5295 18.7216C52.4272 18.4233 52.2752 18.1875 52.0735 18.0142C51.8718 17.8409 51.6204 17.7543 51.3192 17.7543C51.0153 17.7543 50.7596 17.8409 50.5522 18.0142C50.3477 18.1875 50.1928 18.4233 50.0877 18.7216C49.9854 19.0199 49.9343 19.3594 49.9343 19.7401C49.9343 20.1207 49.9854 20.4602 50.0877 20.7585C50.1928 21.0568 50.3477 21.2926 50.5522 21.4659C50.7596 21.6364 51.0153 21.7216 51.3192 21.7216ZM58.6701 23.1278C57.9996 23.1278 57.4229 22.9858 56.94 22.7017C56.4599 22.4148 56.0906 22.017 55.832 21.5085C55.5763 21 55.4485 20.4148 55.4485 19.7528C55.4485 19.0824 55.5778 18.4943 55.8363 17.9886C56.0977 17.4801 56.4684 17.0838 56.9485 16.7997C57.4286 16.5128 57.9996 16.3693 58.6616 16.3693C59.2326 16.3693 59.7326 16.473 60.1616 16.6804C60.5906 16.8878 60.93 17.179 61.18 17.554C61.43 17.929 61.5678 18.3693 61.5934 18.875H59.8803C59.832 18.5483 59.7042 18.2855 59.4968 18.0866C59.2923 17.8849 59.0238 17.7841 58.6914 17.7841C58.4102 17.7841 58.1644 17.8608 57.9542 18.0142C57.7468 18.1648 57.5849 18.3849 57.4684 18.6747C57.3519 18.9645 57.2937 19.3153 57.2937 19.7273C57.2937 20.1449 57.3505 20.5 57.4641 20.7926C57.5806 21.0852 57.744 21.3082 57.9542 21.4616C58.1644 21.6151 58.4102 21.6918 58.6914 21.6918C58.8988 21.6918 59.0849 21.6491 59.2496 21.5639C59.4173 21.4787 59.555 21.3551 59.663 21.1932C59.7738 21.0284 59.8462 20.831 59.8803 20.6009H61.5934C61.565 21.1009 61.4286 21.5412 61.1843 21.9219C60.9428 22.2997 60.609 22.5952 60.1829 22.8082C59.7567 23.0213 59.2525 23.1278 58.6701 23.1278ZM65.7386 23.1278C65.0653 23.1278 64.4858 22.9915 64 22.7188C63.517 22.4432 63.1449 22.054 62.8835 21.5511C62.6222 21.0455 62.4915 20.4474 62.4915 19.7571C62.4915 19.0838 62.6222 18.4929 62.8835 17.9844C63.1449 17.4759 63.5128 17.0795 63.9872 16.7955C64.4645 16.5114 65.0241 16.3693 65.6662 16.3693C66.098 16.3693 66.5 16.4389 66.8722 16.5781C67.2472 16.7145 67.5739 16.9205 67.8523 17.196C68.1335 17.4716 68.3523 17.8182 68.5085 18.2358C68.6648 18.6506 68.7429 19.1364 68.7429 19.6932V20.1918H63.2159V19.0668H67.0341C67.0341 18.8054 66.9773 18.5739 66.8636 18.3722C66.75 18.1705 66.5923 18.0128 66.3906 17.8991C66.1918 17.7827 65.9602 17.7244 65.696 17.7244C65.4205 17.7244 65.1761 17.7884 64.9631 17.9162C64.7528 18.0412 64.5881 18.2102 64.4688 18.4233C64.3494 18.6335 64.2884 18.8679 64.2855 19.1264V20.196C64.2855 20.5199 64.3452 20.7997 64.4645 21.0355C64.5866 21.2713 64.7585 21.4531 64.9801 21.581C65.2017 21.7088 65.4645 21.7727 65.7685 21.7727C65.9702 21.7727 66.1548 21.7443 66.3224 21.6875C66.4901 21.6307 66.6335 21.5455 66.7528 21.4318C66.8722 21.3182 66.9631 21.179 67.0256 21.0142L68.7045 21.125C68.6193 21.5284 68.4446 21.8807 68.1804 22.1818C67.919 22.4801 67.581 22.7131 67.1662 22.8807C66.7543 23.0455 66.2784 23.1278 65.7386 23.1278ZM72.8764 25.5909C72.2884 25.5909 71.7841 25.5099 71.3636 25.348C70.946 25.1889 70.6136 24.9716 70.3665 24.696C70.1193 24.4205 69.9588 24.1108 69.8849 23.767L71.5639 23.5412C71.6151 23.6719 71.696 23.794 71.8068 23.9077C71.9176 24.0213 72.0639 24.1122 72.2457 24.1804C72.4304 24.2514 72.6548 24.2869 72.919 24.2869C73.3139 24.2869 73.6392 24.1903 73.8949 23.9972C74.1534 23.8068 74.2827 23.4872 74.2827 23.0384V21.8409H74.206C74.1264 22.0227 74.0071 22.1946 73.848 22.3565C73.6889 22.5185 73.4844 22.6506 73.2344 22.7528C72.9844 22.8551 72.6861 22.9062 72.3395 22.9062C71.848 22.9062 71.4006 22.7926 70.9972 22.5653C70.5966 22.3352 70.277 21.9844 70.0384 21.5128C69.8026 21.0384 69.6847 20.4389 69.6847 19.7145C69.6847 18.973 69.8054 18.3537 70.0469 17.8565C70.2884 17.3594 70.6094 16.9872 71.0099 16.7401C71.4134 16.4929 71.8551 16.3693 72.3352 16.3693C72.7017 16.3693 73.0085 16.4318 73.2557 16.5568C73.5028 16.679 73.7017 16.8324 73.8523 17.017C74.0057 17.1989 74.1236 17.3778 74.206 17.554H74.2741V16.4545H76.0767V23.0639C76.0767 23.6207 75.9403 24.0866 75.6676 24.4616C75.3949 24.8366 75.017 25.1179 74.5341 25.3054C74.054 25.4957 73.5014 25.5909 72.8764 25.5909ZM72.9148 21.5426C73.2074 21.5426 73.4545 21.4702 73.6562 21.3253C73.8608 21.1776 74.017 20.9673 74.125 20.6946C74.2358 20.419 74.2912 20.0895 74.2912 19.706C74.2912 19.3224 74.2372 18.9901 74.1293 18.7088C74.0213 18.4247 73.8651 18.2045 73.6605 18.0483C73.456 17.892 73.2074 17.8139 72.9148 17.8139C72.6165 17.8139 72.3651 17.8949 72.1605 18.0568C71.956 18.2159 71.8011 18.4375 71.696 18.7216C71.5909 19.0057 71.5384 19.3338 71.5384 19.706C71.5384 20.0838 71.5909 20.4105 71.696 20.6861C71.804 20.9588 71.9588 21.1705 72.1605 21.321C72.3651 21.4687 72.6165 21.5426 72.9148 21.5426ZM80.5043 23.1278C79.831 23.1278 79.2514 22.9915 78.7656 22.7188C78.2827 22.4432 77.9105 22.054 77.6491 21.5511C77.3878 21.0455 77.2571 20.4474 77.2571 19.7571C77.2571 19.0838 77.3878 18.4929 77.6491 17.9844C77.9105 17.4759 78.2784 17.0795 78.7528 16.7955C79.2301 16.5114 79.7898 16.3693 80.4318 16.3693C80.8636 16.3693 81.2656 16.4389 81.6378 16.5781C82.0128 16.7145 82.3395 16.9205 82.6179 17.196C82.8991 17.4716 83.1179 17.8182 83.2741 18.2358C83.4304 18.6506 83.5085 19.1364 83.5085 19.6932V20.1918H77.9815V19.0668H81.7997C81.7997 18.8054 81.7429 18.5739 81.6293 18.3722C81.5156 18.1705 81.358 18.0128 81.1562 17.8991C80.9574 17.7827 80.7259 17.7244 80.4616 17.7244C80.1861 17.7244 79.9418 17.7884 79.7287 17.9162C79.5185 18.0412 79.3537 18.2102 79.2344 18.4233C79.1151 18.6335 79.054 18.8679 79.0511 19.1264V20.196C79.0511 20.5199 79.1108 20.7997 79.2301 21.0355C79.3523 21.2713 79.5241 21.4531 79.7457 21.581C79.9673 21.7088 80.2301 21.7727 80.5341 21.7727C80.7358 21.7727 80.9205 21.7443 81.0881 21.6875C81.2557 21.6307 81.3991 21.5455 81.5185 21.4318C81.6378 21.3182 81.7287 21.179 81.7912 21.0142L83.4702 21.125C83.3849 21.5284 83.2102 21.8807 82.946 22.1818C82.6847 22.4801 82.3466 22.7131 81.9318 22.8807C81.5199 23.0455 81.044 23.1278 80.5043 23.1278ZM86.5085 14.2727V23H84.6932V14.2727H86.5085ZM90.9457 23.1278C90.2724 23.1278 89.6928 22.9915 89.207 22.7188C88.7241 22.4432 88.3519 22.054 88.0906 21.5511C87.8292 21.0455 87.6985 20.4474 87.6985 19.7571C87.6985 19.0838 87.8292 18.4929 88.0906 17.9844C88.3519 17.4759 88.7198 17.0795 89.1942 16.7955C89.6715 16.5114 90.2312 16.3693 90.8732 16.3693C91.305 16.3693 91.707 16.4389 92.0792 16.5781C92.4542 16.7145 92.7809 16.9205 93.0593 17.196C93.3406 17.4716 93.5593 17.8182 93.7156 18.2358C93.8718 18.6506 93.9499 19.1364 93.9499 19.6932V20.1918H88.4229V19.0668H92.2411C92.2411 18.8054 92.1843 18.5739 92.0707 18.3722C91.957 18.1705 91.7994 18.0128 91.5977 17.8991C91.3988 17.7827 91.1673 17.7244 90.9031 17.7244C90.6275 17.7244 90.3832 17.7884 90.1701 17.9162C89.9599 18.0412 89.7951 18.2102 89.6758 18.4233C89.5565 18.6335 89.4954 18.8679 89.4925 19.1264V20.196C89.4925 20.5199 89.5522 20.7997 89.6715 21.0355C89.7937 21.2713 89.9656 21.4531 90.1871 21.581C90.4087 21.7088 90.6715 21.7727 90.9755 21.7727C91.1772 21.7727 91.3619 21.7443 91.5295 21.6875C91.6971 21.6307 91.8406 21.5455 91.9599 21.4318C92.0792 21.3182 92.1701 21.179 92.2326 21.0142L93.9116 21.125C93.8263 21.5284 93.6516 21.8807 93.3874 22.1818C93.1261 22.4801 92.788 22.7131 92.3732 22.8807C91.9613 23.0455 91.4854 23.1278 90.9457 23.1278ZM95.1346 23V16.4545H96.9499V23H95.1346ZM96.0465 15.6108C95.7766 15.6108 95.5451 15.5213 95.3519 15.3423C95.1616 15.1605 95.0664 14.9432 95.0664 14.6903C95.0664 14.4403 95.1616 14.2259 95.3519 14.0469C95.5451 13.8651 95.7766 13.7741 96.0465 13.7741C96.3164 13.7741 96.5465 13.8651 96.7369 14.0469C96.93 14.2259 97.0266 14.4403 97.0266 14.6903C97.0266 14.9432 96.93 15.1605 96.7369 15.3423C96.5465 15.5213 96.3164 15.6108 96.0465 15.6108ZM100.271 23.1236C99.853 23.1236 99.4808 23.0511 99.1541 22.9062C98.8274 22.7585 98.5689 22.5412 98.3786 22.2543C98.1911 21.9645 98.0973 21.6037 98.0973 21.1719C98.0973 20.8082 98.1641 20.5028 98.2976 20.2557C98.4311 20.0085 98.6129 19.8097 98.843 19.6591C99.0732 19.5085 99.3345 19.3949 99.6271 19.3182C99.9226 19.2415 100.232 19.1875 100.556 19.1562C100.937 19.1165 101.244 19.0795 101.477 19.0455C101.71 19.0085 101.879 18.9545 101.984 18.8835C102.089 18.8125 102.141 18.7074 102.141 18.5682V18.5426C102.141 18.2727 102.056 18.0639 101.886 17.9162C101.718 17.7685 101.479 17.6946 101.17 17.6946C100.843 17.6946 100.583 17.767 100.39 17.9119C100.197 18.054 100.069 18.233 100.006 18.4489L98.3274 18.3125C98.4126 17.9148 98.5803 17.571 98.8303 17.2812C99.0803 16.9886 99.4027 16.7642 99.7976 16.608C100.195 16.4489 100.656 16.3693 101.178 16.3693C101.542 16.3693 101.89 16.4119 102.222 16.4972C102.558 16.5824 102.854 16.7145 103.113 16.8935C103.374 17.0724 103.58 17.3026 103.731 17.5838C103.881 17.8622 103.957 18.196 103.957 18.5852V23H102.235V22.0923H102.184C102.079 22.2969 101.938 22.4773 101.762 22.6335C101.586 22.7869 101.374 22.9077 101.127 22.9957C100.88 23.081 100.594 23.1236 100.271 23.1236ZM100.79 21.8707C101.058 21.8707 101.293 21.8182 101.498 21.7131C101.702 21.6051 101.863 21.4602 101.979 21.2784C102.096 21.0966 102.154 20.8906 102.154 20.6605V19.9659C102.097 20.0028 102.019 20.0369 101.92 20.0682C101.823 20.0966 101.714 20.1236 101.592 20.1491C101.469 20.1719 101.347 20.1932 101.225 20.2131C101.103 20.2301 100.992 20.2457 100.893 20.2599C100.68 20.2912 100.494 20.3409 100.335 20.4091C100.175 20.4773 100.052 20.5696 99.9638 20.6861C99.8757 20.7997 99.8317 20.9418 99.8317 21.1122C99.8317 21.3594 99.9212 21.5483 100.1 21.679C100.282 21.8068 100.512 21.8707 100.79 21.8707ZM106.426 23.1108C106.145 23.1108 105.903 23.0114 105.702 22.8125C105.503 22.6108 105.403 22.3693 105.403 22.0881C105.403 21.8097 105.503 21.571 105.702 21.3722C105.903 21.1733 106.145 21.0739 106.426 21.0739C106.699 21.0739 106.938 21.1733 107.142 21.3722C107.347 21.571 107.449 21.8097 107.449 22.0881C107.449 22.2756 107.401 22.4474 107.304 22.6037C107.21 22.7571 107.087 22.8807 106.933 22.9744C106.78 23.0653 106.611 23.1108 106.426 23.1108ZM108.939 25.4545V16.4545H110.729V17.554H110.81C110.89 17.3778 111.005 17.1989 111.155 17.017C111.309 16.8324 111.507 16.679 111.752 16.5568C111.999 16.4318 112.306 16.3693 112.672 16.3693C113.15 16.3693 113.59 16.4943 113.993 16.7443C114.397 16.9915 114.719 17.3651 114.961 17.8651C115.202 18.3622 115.323 18.9858 115.323 19.7358C115.323 20.4659 115.205 21.0824 114.969 21.5852C114.736 22.0852 114.418 22.4645 114.015 22.723C113.614 22.9787 113.165 23.1065 112.668 23.1065C112.316 23.1065 112.016 23.0483 111.769 22.9318C111.525 22.8153 111.324 22.669 111.168 22.4929C111.012 22.3139 110.892 22.1335 110.81 21.9517H110.755V25.4545H108.939ZM110.716 19.7273C110.716 20.1165 110.77 20.456 110.878 20.7457C110.986 21.0355 111.142 21.2614 111.347 21.4233C111.551 21.5824 111.8 21.6619 112.093 21.6619C112.388 21.6619 112.638 21.581 112.843 21.419C113.047 21.2543 113.202 21.027 113.307 20.7372C113.415 20.4446 113.469 20.108 113.469 19.7273C113.469 19.3494 113.417 19.017 113.311 18.7301C113.206 18.4432 113.051 18.2187 112.847 18.0568C112.642 17.8949 112.391 17.8139 112.093 17.8139C111.797 17.8139 111.547 17.892 111.343 18.0483C111.141 18.2045 110.986 18.4261 110.878 18.7131C110.77 19 110.716 19.3381 110.716 19.7273ZM120.015 16.4545V17.8182H116.073V16.4545H120.015ZM116.968 14.8864H118.783V20.9886C118.783 21.1562 118.809 21.2869 118.86 21.3807C118.911 21.4716 118.982 21.5355 119.073 21.5724C119.167 21.6094 119.275 21.6278 119.397 21.6278C119.482 21.6278 119.567 21.6207 119.652 21.6065C119.738 21.5895 119.803 21.5767 119.848 21.5682L120.134 22.919C120.043 22.9474 119.915 22.9801 119.75 23.017C119.586 23.0568 119.385 23.081 119.15 23.0895C118.712 23.1065 118.328 23.0483 117.999 22.9148C117.672 22.7812 117.418 22.5739 117.236 22.2926C117.054 22.0114 116.965 21.6562 116.968 21.2273V14.8864Z" fill="white"/>
<path d="M40.8807 36V28.7273H43.3381C43.9086 28.7273 44.375 28.8303 44.7372 29.0362C45.1018 29.2398 45.3717 29.5156 45.5469 29.8636C45.7221 30.2116 45.8097 30.5999 45.8097 31.0284C45.8097 31.4569 45.7221 31.8464 45.5469 32.1967C45.3741 32.5471 45.1065 32.8265 44.7443 33.0348C44.3821 33.2408 43.9181 33.3438 43.3523 33.3438H41.5909V32.5625H43.3239C43.7145 32.5625 44.0282 32.495 44.2649 32.3601C44.5017 32.2251 44.6733 32.0429 44.7798 31.8132C44.8887 31.5812 44.9432 31.3196 44.9432 31.0284C44.9432 30.7372 44.8887 30.4768 44.7798 30.2472C44.6733 30.0175 44.5005 29.8376 44.2614 29.7074C44.0223 29.5748 43.705 29.5085 43.3097 29.5085H41.7614V36H40.8807ZM49.272 36.1136C48.7796 36.1136 48.3475 35.9964 47.9759 35.7621C47.6065 35.5277 47.3177 35.1998 47.1094 34.7784C46.9034 34.357 46.8004 33.8646 46.8004 33.3011C46.8004 32.733 46.9034 32.237 47.1094 31.8132C47.3177 31.3894 47.6065 31.0604 47.9759 30.826C48.3475 30.5916 48.7796 30.4744 49.272 30.4744C49.7644 30.4744 50.1953 30.5916 50.5646 30.826C50.9363 31.0604 51.2251 31.3894 51.4311 31.8132C51.6394 32.237 51.7436 32.733 51.7436 33.3011C51.7436 33.8646 51.6394 34.357 51.4311 34.7784C51.2251 35.1998 50.9363 35.5277 50.5646 35.7621C50.1953 35.9964 49.7644 36.1136 49.272 36.1136ZM49.272 35.3608C49.6461 35.3608 49.9538 35.2649 50.1953 35.0732C50.4368 34.8814 50.6155 34.6293 50.7315 34.3168C50.8475 34.0043 50.9055 33.6657 50.9055 33.3011C50.9055 32.9366 50.8475 32.5968 50.7315 32.282C50.6155 31.9671 50.4368 31.7126 50.1953 31.5185C49.9538 31.3243 49.6461 31.2273 49.272 31.2273C48.898 31.2273 48.5902 31.3243 48.3487 31.5185C48.1072 31.7126 47.9285 31.9671 47.8125 32.282C47.6965 32.5968 47.6385 32.9366 47.6385 33.3011C47.6385 33.6657 47.6965 34.0043 47.8125 34.3168C47.9285 34.6293 48.1072 34.8814 48.3487 35.0732C48.5902 35.2649 48.898 35.3608 49.272 35.3608ZM53.0229 36V30.5455H53.8326V31.3693H53.8894C53.9888 31.0994 54.1687 30.8804 54.4292 30.7124C54.6896 30.5443 54.9831 30.4602 55.3098 30.4602C55.3714 30.4602 55.4483 30.4614 55.5407 30.4638C55.633 30.4661 55.7028 30.4697 55.7502 30.4744V31.3267C55.7218 31.3196 55.6567 31.3089 55.5549 31.2947C55.4554 31.2782 55.3501 31.2699 55.2388 31.2699C54.9737 31.2699 54.7369 31.3255 54.5286 31.4368C54.3226 31.5457 54.1593 31.6972 54.0385 31.8913C53.9202 32.0831 53.861 32.3021 53.861 32.5483V36H53.0229ZM59.4576 30.5455V31.2557H56.6309V30.5455H59.4576ZM57.4547 29.2386H58.2928V34.4375C58.2928 34.6742 58.3271 34.8518 58.3958 34.9702C58.4668 35.0862 58.5568 35.1643 58.6657 35.2045C58.7769 35.2424 58.8941 35.2614 59.0172 35.2614C59.1096 35.2614 59.1853 35.2566 59.2445 35.2472C59.3037 35.2353 59.351 35.2259 59.3865 35.2188L59.557 35.9716C59.5002 35.9929 59.4209 36.0142 59.3191 36.0355C59.2173 36.0592 59.0882 36.071 58.932 36.071C58.6953 36.071 58.4632 36.0201 58.236 35.9183C58.0111 35.8165 57.824 35.6615 57.6749 35.4531C57.5281 35.2448 57.4547 34.982 57.4547 34.6648V29.2386ZM64.1557 33.7699V30.5455H64.9938V36H64.1557V35.0767H64.0989C63.9711 35.3537 63.7722 35.5893 63.5023 35.7834C63.2324 35.9751 62.8915 36.071 62.4796 36.071C62.1387 36.071 61.8356 35.9964 61.5705 35.8473C61.3053 35.6958 61.097 35.4685 60.9455 35.1655C60.794 34.8601 60.7182 34.4754 60.7182 34.0114V30.5455H61.5563V33.9545C61.5563 34.3523 61.6676 34.6695 61.8901 34.9062C62.115 35.143 62.4015 35.2614 62.7495 35.2614C62.9578 35.2614 63.1697 35.2081 63.3851 35.1016C63.6029 34.995 63.7852 34.8317 63.932 34.6115C64.0811 34.3913 64.1557 34.1108 64.1557 33.7699ZM68.7305 38.1591C68.3256 38.1591 67.9776 38.107 67.6864 38.0028C67.3952 37.901 67.1526 37.7661 66.9585 37.598C66.7667 37.4323 66.614 37.2547 66.5004 37.0653L67.168 36.5966C67.2437 36.696 67.3396 36.8097 67.4556 36.9375C67.5716 37.0677 67.7302 37.1802 67.9315 37.2749C68.1351 37.3719 68.4014 37.4205 68.7305 37.4205C69.1708 37.4205 69.5342 37.3139 69.8207 37.1009C70.1071 36.8878 70.2504 36.554 70.2504 36.0994V34.9915H70.1793C70.1178 35.0909 70.0302 35.214 69.9165 35.3608C69.8053 35.5052 69.6443 35.6342 69.4336 35.7479C69.2253 35.8591 68.9435 35.9148 68.5884 35.9148C68.1481 35.9148 67.7527 35.8106 67.4023 35.6023C67.0543 35.3939 66.7785 35.0909 66.5749 34.6932C66.3737 34.2955 66.2731 33.8125 66.2731 33.2443C66.2731 32.6856 66.3713 32.1991 66.5678 31.7848C66.7643 31.3681 67.0378 31.0462 67.3881 30.8189C67.7385 30.5893 68.1433 30.4744 68.6026 30.4744C68.9577 30.4744 69.2395 30.5336 69.4478 30.652C69.6585 30.768 69.8195 30.9006 69.9308 31.0497C70.0444 31.1965 70.132 31.3172 70.1935 31.4119H70.2788V30.5455H71.0884V36.1562C71.0884 36.625 70.9819 37.0062 70.7688 37.2997C70.5581 37.5956 70.274 37.8123 69.9165 37.9496C69.5614 38.0893 69.1661 38.1591 68.7305 38.1591ZM68.7021 35.1619C69.0382 35.1619 69.3223 35.085 69.5543 34.9311C69.7863 34.7772 69.9627 34.5559 70.0835 34.267C70.2042 33.9782 70.2646 33.6326 70.2646 33.2301C70.2646 32.8371 70.2054 32.4903 70.087 32.1896C69.9686 31.889 69.7934 31.6534 69.5614 31.483C69.3294 31.3125 69.043 31.2273 68.7021 31.2273C68.3469 31.2273 68.051 31.3172 67.8143 31.4972C67.5799 31.6771 67.4035 31.9186 67.2852 32.2216C67.1692 32.5246 67.1112 32.8608 67.1112 33.2301C67.1112 33.6089 67.1703 33.9439 67.2887 34.2351C67.4094 34.5239 67.587 34.7512 67.8214 34.9169C68.0581 35.0803 68.3517 35.1619 68.7021 35.1619ZM74.2276 36.1278C73.882 36.1278 73.5683 36.0627 73.2866 35.9325C73.0049 35.8 72.7811 35.6094 72.6154 35.3608C72.4497 35.1098 72.3668 34.8068 72.3668 34.4517C72.3668 34.1392 72.4284 33.8859 72.5515 33.6918C72.6746 33.4953 72.8391 33.3414 73.0451 33.2301C73.2511 33.1188 73.4783 33.036 73.7269 32.9815C73.9779 32.9247 74.23 32.8797 74.4833 32.8466C74.8147 32.804 75.0835 32.772 75.2894 32.7507C75.4978 32.727 75.6493 32.688 75.744 32.6335C75.841 32.5791 75.8896 32.4844 75.8896 32.3494V32.321C75.8896 31.9706 75.7937 31.6984 75.6019 31.5043C75.4125 31.3101 75.1249 31.2131 74.739 31.2131C74.3389 31.2131 74.0252 31.3007 73.7979 31.4759C73.5707 31.651 73.4109 31.8381 73.3185 32.0369L72.5231 31.7528C72.6651 31.4214 72.8545 31.1634 73.0913 30.9787C73.3304 30.7917 73.5908 30.6615 73.8725 30.5881C74.1566 30.5123 74.436 30.4744 74.7106 30.4744C74.8858 30.4744 75.087 30.4957 75.3143 30.5384C75.5439 30.5786 75.7653 30.6626 75.9783 30.7905C76.1938 30.9183 76.3725 31.1113 76.5146 31.3693C76.6566 31.6274 76.7276 31.973 76.7276 32.4062V36H75.8896V35.2614H75.8469C75.7901 35.3797 75.6954 35.5064 75.5629 35.6413C75.4303 35.7763 75.2539 35.8911 75.0337 35.9858C74.8136 36.0805 74.5449 36.1278 74.2276 36.1278ZM74.3555 35.375C74.6869 35.375 74.9663 35.3099 75.1935 35.1797C75.4232 35.0495 75.596 34.8814 75.712 34.6754C75.8304 34.4695 75.8896 34.2528 75.8896 34.0256V33.2585C75.854 33.3011 75.7759 33.3402 75.6552 33.3757C75.5368 33.4089 75.3995 33.4384 75.2433 33.4645C75.0894 33.4882 74.939 33.5095 74.7923 33.5284C74.6478 33.545 74.5307 33.5592 74.4407 33.571C74.2229 33.5994 74.0193 33.6456 73.8299 33.7095C73.6429 33.7711 73.4914 33.8646 73.3754 33.9901C73.2617 34.1132 73.2049 34.2812 73.2049 34.4943C73.2049 34.7855 73.3126 35.0057 73.5281 35.1548C73.7459 35.3016 74.0217 35.375 74.3555 35.375ZM79.0953 28.7273V36H78.2573V28.7273H79.0953Z" fill="white"/>
</svg>
