<svg width="20" height="20" viewBox="0 0 20 20" fill="none" xmlns="http://www.w3.org/2000/svg">
<path d="M19.3153 0.684685V19.3153H0.684685V0.684685H19.3153ZM20 0H0V20H20V0Z" fill="black"/>
<path d="M1.40308 11.5869H1.73941C1.78418 11.5869 1.81461 11.5781 1.8307 11.5605C1.8468 11.5428 1.85481 11.5132 1.85473 11.4716V8.58856C1.85473 8.54372 1.84672 8.51329 1.8307 8.49727C1.81469 8.48126 1.78426 8.47325 1.73941 8.47325H1.40308V8.31949H3.19046C3.44961 8.3176 3.70359 8.39196 3.92079 8.53331C4.14181 8.67585 4.31719 8.87445 4.44692 9.1291C4.57665 9.38376 4.64151 9.67445 4.64151 10.0012C4.64151 10.3279 4.57665 10.6242 4.44692 10.8901C4.31719 11.1559 4.14101 11.3641 3.91839 11.5147C3.7045 11.6625 3.45047 11.7413 3.19046 11.7405H1.40308V11.5869ZM3.10878 11.5869C3.31371 11.5869 3.48428 11.5156 3.62049 11.3731C3.75671 11.2305 3.82478 11.0231 3.8247 10.7507V9.30928C3.8247 9.03701 3.75663 8.8296 3.62049 8.68706C3.48436 8.54452 3.31379 8.47325 3.10878 8.47325H2.68115C2.63951 8.47325 2.60988 8.48126 2.59227 8.49727C2.57465 8.51329 2.56584 8.54372 2.56584 8.58856V11.4714C2.56584 11.513 2.57465 11.5426 2.59227 11.5603C2.60988 11.578 2.63951 11.5868 2.68115 11.5868L3.10878 11.5869Z" fill="black"/>
<path d="M5.3478 11.6422C5.19733 11.538 5.07721 11.3947 4.98744 11.2121C4.89767 11.0295 4.85283 10.8261 4.85291 10.6018C4.85291 10.3776 4.89775 10.1742 4.98744 9.99158C5.07713 9.809 5.19725 9.66566 5.3478 9.56155C5.49835 9.45745 5.66011 9.4054 5.83309 9.4054C6.00606 9.4054 6.16782 9.45745 6.31837 9.56155C6.469 9.66566 6.58912 9.809 6.67873 9.99158C6.76834 10.1742 6.81323 10.3776 6.81339 10.6018C6.81339 10.826 6.7685 11.0295 6.67873 11.2121C6.58896 11.3948 6.46884 11.5381 6.31837 11.6422C6.1679 11.7463 6.00614 11.7983 5.83309 11.7983C5.66003 11.7983 5.49827 11.7463 5.3478 11.6422ZM6.11897 11.4283C6.17182 11.2585 6.19825 10.983 6.19825 10.6018C6.19825 10.2206 6.17182 9.94514 6.11897 9.77537C6.06612 9.60568 5.97082 9.52079 5.83309 9.52071C5.69535 9.52063 5.60005 9.60552 5.5472 9.77537C5.49435 9.94522 5.46792 10.2207 5.46792 10.6018C5.46792 10.9829 5.49435 11.2584 5.5472 11.4283C5.60005 11.5981 5.69535 11.683 5.83309 11.683C5.97082 11.683 6.06612 11.5981 6.11897 11.4283V11.4283Z" fill="black"/>
<path d="M7.50751 11.6374C7.35207 11.5301 7.23111 11.3852 7.14462 11.2025C7.05814 11.0199 7.01489 10.8197 7.01489 10.6019C7.01489 10.3841 7.05734 10.1839 7.14222 10.0013C7.22711 9.81873 7.34723 9.67379 7.50258 9.56648C7.65705 9.45942 7.84102 9.40312 8.02895 9.4054C8.1827 9.4054 8.31163 9.43743 8.41573 9.5015C8.51449 9.56012 8.59511 9.64493 8.64865 9.74654C8.69873 9.84133 8.72511 9.94684 8.72552 10.054C8.72753 10.1636 8.69001 10.2702 8.61982 10.3544C8.54935 10.4393 8.46446 10.4818 8.36516 10.4817C8.29141 10.4817 8.23055 10.4601 8.18258 10.4168C8.13461 10.3736 8.11059 10.3151 8.11051 10.2414C8.11051 10.155 8.16176 10.0701 8.26426 9.98678C8.34114 9.92272 8.37958 9.85705 8.37958 9.78979C8.37894 9.72094 8.35234 9.65488 8.3051 9.6048C8.25537 9.54874 8.17609 9.52072 8.06726 9.52072C7.91663 9.52072 7.80612 9.61601 7.73573 9.8066C7.66534 9.99719 7.63011 10.2623 7.63003 10.6018C7.63003 10.7716 7.63323 10.9038 7.63964 10.9982C7.6453 11.0883 7.65978 11.1776 7.68288 11.2649C7.71171 11.3833 7.76697 11.4778 7.84865 11.5483C7.92756 11.6178 8.02944 11.6554 8.13453 11.654C8.29141 11.654 8.41794 11.5852 8.51411 11.4474C8.61029 11.3097 8.66795 11.1479 8.68708 10.9622H8.81201C8.79279 11.1832 8.72072 11.3778 8.59579 11.5459C8.47087 11.7141 8.28508 11.7982 8.03844 11.7982C7.83984 11.7983 7.66286 11.7447 7.50751 11.6374Z" fill="black"/>
<path d="M9.49664 11.6373C9.34121 11.5301 9.22029 11.3852 9.13388 11.2025C9.04747 11.0199 9.00423 10.8197 9.00415 10.6019C9.00415 10.3777 9.04739 10.1743 9.13388 9.9917C9.22037 9.80912 9.33808 9.66574 9.48703 9.56155C9.6292 9.45965 9.79981 9.40502 9.97472 9.4054C10.1701 9.4054 10.3383 9.47507 10.4792 9.61441C10.6202 9.75375 10.7131 9.93713 10.7579 10.1646C10.7803 10.2671 10.7915 10.4273 10.7915 10.645H9.61917C9.61917 10.7986 9.62237 10.9196 9.62878 11.0078C9.63495 11.0947 9.64943 11.1807 9.67202 11.2649C9.70085 11.3833 9.7561 11.4778 9.83778 11.5483C9.9167 11.6178 10.0186 11.6554 10.1237 11.654C10.2807 11.654 10.4072 11.5852 10.5033 11.4474C10.5993 11.3097 10.6569 11.1479 10.6762 10.9622H10.8011C10.7819 11.1832 10.7099 11.3778 10.5849 11.5459C10.46 11.7141 10.2742 11.7982 10.0276 11.7982C9.82898 11.7983 9.652 11.7447 9.49664 11.6373ZM10.2342 10.5105C10.2342 10.1742 10.2126 9.92512 10.1693 9.76336C10.1261 9.60159 10.0452 9.52071 9.92667 9.52071C9.80815 9.52071 9.72727 9.60159 9.68403 9.76336C9.64079 9.92512 9.61917 10.1742 9.61917 10.5105H10.2342Z" fill="black"/>
<path d="M2.04919 16.1586C1.84571 15.9953 1.68955 15.7767 1.58072 15.5028C1.47189 15.2289 1.41744 14.9302 1.41736 14.6066C1.41736 14.2863 1.47822 13.9884 1.59994 13.7129C1.72166 13.4374 1.89143 13.218 2.10925 13.0546C2.3218 12.893 2.58216 12.8067 2.84919 12.8096C2.98685 12.8096 3.10617 12.8296 3.20715 12.8696C3.32105 12.9167 3.42974 12.9755 3.53147 13.045C3.60507 13.0931 3.65952 13.1171 3.69484 13.1171C3.73648 13.1171 3.77171 13.0867 3.80054 13.0258L3.88222 12.848H4.04078V14.2318H3.89183C3.77972 13.8251 3.63638 13.512 3.4618 13.2925C3.28723 13.073 3.08302 12.9632 2.84919 12.9633C2.65379 12.9633 2.50244 13.0346 2.39514 13.1771C2.28783 13.3197 2.23418 13.5559 2.23418 13.8859V15.3273C2.23418 15.9425 2.41035 16.25 2.7627 16.2499C2.92919 16.2499 3.06533 16.1795 3.17111 16.0385C3.2769 15.8976 3.32975 15.7326 3.32967 15.5435V14.8853C3.32967 14.8404 3.32166 14.81 3.30565 14.794C3.28963 14.7779 3.2592 14.7699 3.21436 14.7699H2.79153V14.6162H4.38673V14.7699H4.1561C4.11442 14.7699 4.08487 14.778 4.06721 14.794C4.04955 14.8099 4.04078 14.8404 4.04078 14.8853V16.3797H3.88703L3.77171 15.9424C3.76287 15.9119 3.74819 15.8833 3.72847 15.8583C3.72015 15.8471 3.70928 15.8379 3.69676 15.8317C3.68423 15.8254 3.6704 15.8222 3.6564 15.8223C3.59874 15.8223 3.54909 15.8559 3.50745 15.9232C3.42238 16.0502 3.31684 16.1622 3.19514 16.2547C3.07217 16.3522 2.91961 16.4048 2.7627 16.4037C2.49043 16.4037 2.25259 16.322 2.04919 16.1586Z" fill="black"/>
<path d="M5.00421 16.2139C4.84878 16.1067 4.72785 15.9617 4.64145 15.7791C4.55504 15.5964 4.5118 15.3962 4.51172 15.1785C4.51172 14.9543 4.55496 14.7509 4.64145 14.5683C4.72793 14.3857 4.84565 14.2423 4.9946 14.1382C5.13677 14.0363 5.30737 13.9817 5.48229 13.9821C5.6776 13.9821 5.84577 14.0518 5.98679 14.1911C6.12781 14.3304 6.22071 14.5138 6.26547 14.7412C6.28781 14.8438 6.29903 15.004 6.29911 15.2217H5.12673C5.12673 15.3753 5.12994 15.4962 5.13634 15.5845C5.14251 15.6714 5.157 15.7574 5.17959 15.8415C5.20842 15.96 5.26367 16.0545 5.34535 16.125C5.42427 16.1945 5.52614 16.2321 5.63124 16.2307C5.78811 16.2307 5.91464 16.1619 6.01082 16.0241C6.10699 15.8864 6.16465 15.7246 6.18379 15.5388H6.30872C6.2895 15.7599 6.21742 15.9545 6.0925 16.1226C5.96757 16.2908 5.78179 16.3749 5.53514 16.3749C5.33654 16.3749 5.15957 16.3212 5.00421 16.2139ZM5.74175 15.0871C5.74175 14.7507 5.72013 14.5017 5.67688 14.3399C5.63364 14.1782 5.55276 14.0973 5.43424 14.0973C5.31564 14.0973 5.23476 14.1782 5.1916 14.3399C5.14844 14.5017 5.12681 14.7507 5.12673 15.0871H5.74175Z" fill="black"/>
<path d="M6.41455 16.2019H6.68362C6.71245 16.2019 6.73239 16.1963 6.74368 16.1851C6.75497 16.1739 6.7605 16.1539 6.7605 16.125V13.0883C6.7605 13.0595 6.75485 13.0395 6.74368 13.0282C6.73251 13.0169 6.71245 13.0114 6.68362 13.0114H6.41455V12.8961H7.31785V16.125C7.31785 16.1539 7.32338 16.1738 7.33467 16.1851C7.34596 16.1964 7.3659 16.2019 7.39473 16.2019H7.6638V16.3172H6.41455V16.2019Z" fill="black"/>
<path d="M8.23297 16.2139C8.07754 16.1067 7.95661 15.9617 7.87021 15.7791C7.7838 15.5964 7.74056 15.3962 7.74048 15.1785C7.74048 14.9543 7.78372 14.7509 7.87021 14.5683C7.95669 14.3857 8.07441 14.2423 8.22336 14.1382C8.36553 14.0363 8.53613 13.9817 8.71105 13.9821C8.90636 13.9821 9.07453 14.0518 9.21555 14.1911C9.35657 14.3304 9.44947 14.5138 9.49423 14.7412C9.51657 14.8438 9.52779 15.004 9.52787 15.2217H8.35549C8.35549 15.3753 8.3587 15.4962 8.3651 15.5845C8.37127 15.6714 8.38575 15.7574 8.40835 15.8415C8.43717 15.96 8.49243 16.0545 8.57411 16.125C8.65303 16.1945 8.7549 16.2321 8.86 16.2307C9.01687 16.2307 9.1434 16.1619 9.23958 16.0241C9.33575 15.8864 9.39341 15.7246 9.41255 15.5388H9.53748C9.51826 15.7599 9.44618 15.9545 9.32126 16.1226C9.19633 16.2908 9.01055 16.3749 8.7639 16.3749C8.56522 16.3749 8.38825 16.3212 8.23297 16.2139ZM8.97051 15.0871C8.97051 14.7507 8.94889 14.5017 8.90564 14.3399C8.8624 14.1782 8.78152 14.0973 8.663 14.0973C8.5444 14.0973 8.46352 14.1782 8.42036 14.3399C8.37719 14.5017 8.35557 14.7507 8.35549 15.0871H8.97051Z" fill="black"/>
<path d="M9.71045 16.2019H9.89303C9.92186 16.2019 9.94188 16.1963 9.95309 16.1851C9.96426 16.1738 9.96991 16.1539 9.96991 16.1251V14.2319C9.96991 14.203 9.96426 14.1831 9.95309 14.1718C9.94192 14.1605 9.92186 14.155 9.89303 14.155H9.71045V14.0397H10.5273V16.1251C10.5273 16.1539 10.5329 16.1738 10.5441 16.1851C10.5553 16.1964 10.5753 16.2019 10.6041 16.2019H10.7868V16.3173H9.71057L9.71045 16.2019ZM9.97712 13.4463C9.94356 13.4135 9.91707 13.3742 9.8993 13.3309C9.88154 13.2875 9.87286 13.2409 9.87381 13.194C9.87381 13.0915 9.90825 13.0066 9.97712 12.9394C10.0102 12.9064 10.0496 12.8806 10.093 12.8632C10.1363 12.8459 10.1827 12.8375 10.2294 12.8385C10.3318 12.8385 10.4167 12.8721 10.484 12.9394C10.5514 13.0066 10.585 13.0915 10.5849 13.194C10.5859 13.2407 10.5775 13.2871 10.5602 13.3304C10.5428 13.3738 10.5169 13.4132 10.484 13.4463C10.4168 13.5152 10.3319 13.5496 10.2294 13.5496C10.1825 13.5505 10.1359 13.5418 10.0925 13.5241C10.0491 13.5063 10.0099 13.4798 9.97712 13.4463V13.4463Z" fill="black"/>
<path d="M11.0871 16.2451C10.9638 16.1587 10.9021 16.0129 10.9021 15.8079C10.9021 15.5997 10.9782 15.4355 11.1303 15.3154C11.2825 15.1953 11.4755 15.0952 11.7093 15.0151L12.0649 14.8902V14.5635C12.0649 14.4001 12.0312 14.2816 11.964 14.2079C11.8967 14.1342 11.8102 14.0974 11.7045 14.0974C11.6147 14.0974 11.5371 14.1174 11.4715 14.1575C11.4059 14.1975 11.3731 14.2528 11.373 14.3232C11.374 14.3473 11.3798 14.371 11.3898 14.3929C11.4023 14.4217 11.4232 14.446 11.4498 14.4626C11.4979 14.4914 11.5323 14.5218 11.5532 14.5539C11.574 14.5859 11.5844 14.6275 11.5844 14.6788C11.5844 14.7557 11.5564 14.8157 11.5003 14.859C11.4478 14.901 11.3826 14.9238 11.3153 14.9238C11.2357 14.9253 11.1588 14.895 11.1015 14.8397C11.0422 14.7837 11.0125 14.7028 11.0126 14.5971C11.0112 14.4795 11.0502 14.365 11.1231 14.2728C11.1976 14.1777 11.2952 14.1033 11.4066 14.0566C11.5172 14.0079 11.6366 13.9826 11.7574 13.9821C11.988 13.9821 12.1898 14.0437 12.3628 14.1671C12.5357 14.2904 12.6222 14.4866 12.6222 14.7557V15.9714C12.6222 16.0867 12.6543 16.1444 12.7183 16.1444C12.776 16.1444 12.8192 16.0963 12.848 16.0002C12.8785 15.8924 12.893 15.7807 12.8913 15.6687H13.0258C13.0258 15.9024 12.9906 16.0738 12.9201 16.1828C12.8837 16.2416 12.8323 16.2897 12.7712 16.3221C12.7032 16.3583 12.6271 16.3765 12.5501 16.375C12.4187 16.375 12.3194 16.355 12.2523 16.3149C12.1851 16.2749 12.129 16.2084 12.0841 16.1155H12.0745C11.9463 16.2885 11.767 16.375 11.5363 16.375C11.3601 16.3749 11.2103 16.3316 11.0871 16.2451ZM12.0649 15.9713V15.0198L11.7958 15.1159C11.6901 15.1543 11.6124 15.2272 11.5628 15.3345C11.5131 15.4418 11.4883 15.5852 11.4883 15.7647C11.4883 15.9215 11.5171 16.0305 11.5748 16.0914C11.6324 16.1523 11.6981 16.1828 11.7718 16.1827C11.8966 16.1827 11.9943 16.1122 12.0647 15.9713H12.0649Z" fill="black"/>
<path d="M2.02637 17.6168H2.26072V17.6528C2.26072 17.8341 2.24438 17.9564 2.21171 18.0198C2.17968 18.0849 2.11934 18.1174 2.03069 18.1174C1.9394 18.1174 1.87433 18.0814 1.8355 18.0093C1.79666 17.9372 1.77744 17.8157 1.77784 17.6447C1.77784 17.4496 1.7989 17.3196 1.84102 17.2548C1.88106 17.1942 1.942 17.1639 2.02384 17.1639C2.08671 17.1639 2.13568 17.1786 2.17075 17.2079C2.20583 17.2372 2.23353 17.286 2.25387 17.3543L2.13375 17.4031C2.12937 17.382 2.12335 17.3614 2.11574 17.3413C2.11065 17.3273 2.1033 17.3142 2.09399 17.3025C2.07838 17.2835 2.05484 17.2742 2.02336 17.2742C1.98036 17.2742 1.95101 17.2999 1.93532 17.3513C1.9197 17.4051 1.91169 17.5017 1.91129 17.6411C1.91129 17.7822 1.9193 17.8776 1.93532 17.9274C1.95133 17.9772 1.98168 18.0021 2.02637 18.0021C2.04447 18.0033 2.06249 17.9988 2.07794 17.9893C2.09339 17.9798 2.10551 17.9657 2.11261 17.949C2.12959 17.9113 2.13804 17.8506 2.13796 17.767V17.7231H2.02577L2.02637 17.6168Z" fill="black"/>
<path d="M2.6427 17.1759H2.9854V17.2819H2.77159V17.5766H2.96126V17.6827H2.77183V18.0003H2.98564V18.1063H2.6427V17.1759Z" fill="black"/>
<path d="M3.35803 17.1759H3.48692V18.0003H3.69773V18.1063H3.35803V17.1759Z" fill="black"/>
<path d="M4.0321 17.1759H4.37481V17.2819H4.16099V17.5766H4.35066V17.6827H4.16099V18.0003H4.37481V18.1063H4.0321V17.1759Z" fill="black"/>
<path d="M4.74731 17.1759H4.8762V18.1063H4.74731V17.1759Z" fill="black"/>
<path d="M5.41398 17.1759H5.5144L5.71968 18.1063H5.59187L5.55584 17.9249H5.36629L5.33025 18.1063H5.20569L5.41398 17.1759ZM5.53758 17.8279L5.50911 17.6797C5.49013 17.5789 5.47464 17.4712 5.46263 17.3567C5.45686 17.4127 5.44941 17.4692 5.44028 17.5263C5.43115 17.5833 5.42042 17.6441 5.40809 17.7086L5.38407 17.8279H5.53758Z" fill="black"/>
<path d="M6.70267 17.1759H6.80309L7.00825 18.1063H6.88008L6.84405 17.9249H6.65462L6.61858 18.1063H6.4939L6.70267 17.1759ZM6.82603 17.8279L6.79756 17.6797C6.77842 17.5789 6.76293 17.4712 6.75107 17.3567C6.74515 17.4127 6.7377 17.4692 6.72873 17.5263C6.71976 17.5833 6.70899 17.6441 6.69642 17.7086L6.67239 17.8279H6.82603Z" fill="black"/>
<path d="M7.3374 17.1759H7.50749C7.57764 17.1759 7.63001 17.1922 7.66365 17.2248C7.70697 17.2669 7.72867 17.3313 7.72875 17.4182C7.72875 17.4848 7.7173 17.5383 7.6944 17.5788C7.68445 17.5976 7.6705 17.6141 7.65354 17.6271C7.63657 17.64 7.61698 17.6491 7.59614 17.6537L7.77212 18.1063H7.64167L7.46629 17.6507V18.1063H7.3374V17.1759ZM7.46629 17.5881C7.51626 17.5881 7.55158 17.5769 7.57224 17.5544C7.5929 17.5319 7.60323 17.4939 7.60323 17.4404C7.60359 17.4155 7.60142 17.3907 7.59674 17.3663C7.59345 17.3484 7.58649 17.3314 7.57632 17.3163C7.56726 17.3036 7.55476 17.2938 7.54028 17.2879C7.52358 17.2816 7.50579 17.2785 7.48791 17.2789H7.46617L7.46629 17.5881Z" fill="black"/>
<path d="M8.06226 17.1759H8.48196V17.2853H8.33781V18.1061H8.21108V17.2853H8.06226V17.1759Z" fill="black"/>
<path d="M8.80725 17.1759H9.15007V17.2819H8.93626V17.5766H9.12593V17.6827H8.93626V18.0003H9.15007V18.1063H8.80725V17.1759Z" fill="black"/>
<path d="M9.84158 17.1952V17.3175C9.80234 17.2902 9.76702 17.2766 9.73563 17.2765C9.72008 17.276 9.7046 17.2789 9.69025 17.2849C9.6759 17.2909 9.66303 17.3 9.65251 17.3115C9.64152 17.3233 9.63302 17.3373 9.62749 17.3525C9.62196 17.3677 9.61952 17.3838 9.62032 17.4C9.6194 17.4297 9.62739 17.459 9.64326 17.4841C9.65483 17.5011 9.66776 17.5172 9.68194 17.5321C9.69995 17.5518 9.72322 17.5755 9.75173 17.6032C9.80418 17.655 9.83993 17.6998 9.85899 17.7377C9.87916 17.7795 9.88892 17.8255 9.88746 17.8719C9.88746 17.944 9.8666 18.0033 9.82488 18.0497C9.80462 18.072 9.77977 18.0896 9.75205 18.1014C9.72432 18.1132 9.69438 18.1188 9.66428 18.1178C9.61381 18.1192 9.5643 18.1038 9.52362 18.0739V17.9495C9.5695 17.9821 9.61123 17.9984 9.64878 17.9984C9.66421 17.9992 9.67962 17.9966 9.69389 17.9907C9.70817 17.9848 9.72095 17.9758 9.73131 17.9643C9.75228 17.9382 9.76284 17.9053 9.76098 17.8718C9.76149 17.84 9.75357 17.8087 9.73803 17.7809C9.72823 17.7653 9.71726 17.7505 9.70524 17.7366C9.69119 17.7199 9.67365 17.7014 9.65251 17.6808C9.61983 17.6494 9.59277 17.6217 9.57131 17.5977C9.55318 17.5783 9.53708 17.5571 9.52326 17.5344C9.50202 17.4931 9.49177 17.447 9.49347 17.4006C9.49347 17.328 9.51289 17.2703 9.55173 17.2277C9.59057 17.1851 9.64326 17.1636 9.7098 17.1632C9.75566 17.1631 9.80088 17.1741 9.84158 17.1952V17.1952Z" fill="black"/>
<path d="M10.4004 17.1759H10.5008L10.706 18.1063H10.5783L10.5423 17.9249H10.3527L10.3167 18.1063H10.1921L10.4004 17.1759ZM10.5238 17.8279L10.4952 17.6797C10.4762 17.5789 10.4607 17.4712 10.4487 17.3567C10.4429 17.4127 10.4355 17.4692 10.4265 17.5263C10.4174 17.5833 10.4067 17.6441 10.3942 17.7086L10.3702 17.8279H10.5238Z" fill="black"/>
<path d="M11.0354 17.1759H11.1555L11.2838 17.547C11.3225 17.6573 11.3554 17.7696 11.3823 17.8834C11.372 17.8113 11.3643 17.7462 11.3594 17.6881C11.3544 17.6299 11.3519 17.5751 11.3519 17.5236V17.1765H11.4815V18.1069H11.3609L11.2168 17.6881C11.2036 17.6491 11.1911 17.6091 11.1793 17.5679C11.1675 17.5268 11.1568 17.4837 11.147 17.4386C11.1462 17.433 11.1448 17.4266 11.143 17.4182C11.1412 17.4097 11.1389 17.4009 11.1364 17.3904C11.1377 17.4009 11.1387 17.4097 11.1395 17.4172C11.1404 17.4246 11.141 17.431 11.1415 17.4362L11.1482 17.5308L11.155 17.6459C11.155 17.6524 11.1558 17.6602 11.156 17.6699C11.1562 17.6797 11.156 17.6896 11.156 17.7013L11.1627 18.1068H11.0354V17.1759Z" fill="black"/>
<path d="M12.0376 17.1759H12.1381L12.3432 18.1063H12.2161L12.1801 17.9249H11.9899L11.9539 18.1063H11.8293L12.0376 17.1759ZM12.161 17.8279L12.1325 17.6797C12.1135 17.5789 12.098 17.4712 12.086 17.3567C12.0801 17.4127 12.0727 17.4692 12.0637 17.5263C12.0547 17.5833 12.044 17.6441 12.0314 17.7086L12.0074 17.8279H12.161Z" fill="black"/>
<path d="M12.6727 17.1759H12.8017V18.0003H13.0124V18.1063H12.6727V17.1759Z" fill="black"/>
</svg>
